/* XPM */
static char * wh_setupPreroll_xpm[] = {
"32 32 339 2",
"  	c None",
". 	c #0C0C0C",
"+ 	c #3C3C3C",
"@ 	c #494949",
"# 	c #484848",
"$ 	c #3B3A3A",
"% 	c #B3B5B5",
"& 	c #F1F1F1",
"* 	c #F4F4F4",
"= 	c #F3F3F3",
"- 	c #3A3A3A",
"; 	c #454343",
"> 	c #F2F1F1",
", 	c #FFFFFF",
"' 	c #434343",
") 	c #414040",
"! 	c #F6F6F6",
"~ 	c #FCFCFC",
"{ 	c #404040",
"] 	c #F2F2F2",
"^ 	c #F9F9F9",
"/ 	c #71ACC9",
"( 	c #2286B7",
"_ 	c #0076B5",
": 	c #0075B4",
"< 	c #3591BF",
"[ 	c #63A5C7",
"} 	c #404140",
"| 	c #F0F0F0",
"1 	c #FDFDFD",
"2 	c #3B94C0",
"3 	c #3390C0",
"4 	c #94B2C3",
"5 	c #F7F7F7",
"6 	c #56A1C6",
"7 	c #0077B6",
"8 	c #75AECB",
"9 	c #40403F",
"0 	c #ECECEC",
"a 	c #FAFAFA",
"b 	c #278CBF",
"c 	c #268ABD",
"d 	c #8BAA68",
"e 	c #3E8600",
"f 	c #2C7C00",
"g 	c #3E3E3E",
"h 	c #EAEAEA",
"i 	c #F8F8F8",
"j 	c #58A2C8",
"k 	c #1885BB",
"l 	c #91B567",
"m 	c #3D3D3D",
"n 	c #E7E7E7",
"o 	c #EDEDED",
"p 	c #EEEEEE",
"q 	c #4E97BC",
"r 	c #2388B9",
"s 	c #348000",
"t 	c #3C3D3C",
"u 	c #E4E4E4",
"v 	c #EBEBEB",
"w 	c #59A4C9",
"x 	c #318DBB",
"y 	c #629B1E",
"z 	c #94B66A",
"A 	c #3C3D3D",
"B 	c #E1E1E1",
"C 	c #E8E8E8",
"D 	c #238EC1",
"E 	c #79B8D5",
"F 	c #3D8600",
"G 	c #DEDEDE",
"H 	c #E5E5E5",
"I 	c #DC8C82",
"J 	c #AB4B45",
"K 	c #0082C2",
"L 	c #A93229",
"M 	c #C61F09",
"N 	c #C63B2A",
"O 	c #C55A4F",
"P 	c #E2BFC1",
"Q 	c #5F9D24",
"R 	c #5A7345",
"S 	c #414140",
"T 	c #11110F",
"U 	c #898989",
"V 	c #DDDDDD",
"W 	c #3B3B3B",
"X 	c #DCDCDC",
"Y 	c #368100",
"Z 	c #307E00",
"` 	c #478900",
" .	c #DBDED7",
"..	c #E2E2E2",
"+.	c #D48C83",
"@.	c #BF1F0B",
"#.	c #D37368",
"$.	c #D5A29B",
"%.	c #7BB0CB",
"&.	c #2A97CA",
"*.	c #FBFEFD",
"=.	c #E8D2CF",
"-.	c #CD9696",
";.	c #C66551",
">.	c #224504",
",.	c #3A2C00",
"'.	c #827547",
").	c #B8AA7E",
"!.	c #737372",
"~.	c #D8D8D8",
"{.	c #E3E3E3",
"].	c #3B8300",
"^.	c #9AB47C",
"/.	c #C34F41",
"(.	c #C14334",
"_.	c #CABBB8",
":.	c #248ABC",
"<.	c #6DA9C6",
"[.	c #DAD9D8",
"}.	c #D9DBE4",
"|.	c #51752E",
"1.	c #302200",
"2.	c #928456",
"3.	c #3C2E02",
"4.	c #121210",
"5.	c #9E9E9D",
"6.	c #393939",
"7.	c #D2D2D2",
"8.	c #D9D9D9",
"9.	c #D7D7D7",
"0.	c #B8CEA3",
"a.	c #C44F44",
"b.	c #C84A3A",
"c.	c #0074B3",
"d.	c #D3E1EE",
"e.	c #D9D6D6",
"f.	c #1E3A04",
"g.	c #6A5C30",
"h.	c #4C3D12",
"i.	c #333332",
"j.	c #A1A1A1",
"k.	c #311F1C",
"l.	c #5C5C5B",
"m.	c #383838",
"n.	c #CFCFCF",
"o.	c #DBDBDB",
"p.	c #D6D6D6",
"q.	c #D4D4D4",
"r.	c #D3D3D3",
"s.	c #3E8C00",
"t.	c #C87461",
"u.	c #C7443A",
"v.	c #8DBDD8",
"w.	c #1C87C7",
"x.	c #85AA5D",
"y.	c #1A220E",
"z.	c #9E8F64",
"A.	c #20201F",
"B.	c #7E7E7D",
"C.	c #2B2B29",
"D.	c #373838",
"E.	c #CBCBCB",
"F.	c #D1D1D1",
"G.	c #89B057",
"H.	c #507600",
"I.	c #54A2CC",
"J.	c #3B8400",
"K.	c #575756",
"L.	c #323231",
"M.	c #9C9C9B",
"N.	c #595958",
"O.	c #353636",
"P.	c #C8C8C8",
"Q.	c #CECECE",
"R.	c #C33424",
"S.	c #57930A",
"T.	c #8AB264",
"U.	c #A4C170",
"V.	c #308212",
"W.	c #457698",
"X.	c #939393",
"Y.	c #353635",
"Z.	c #C5C5C5",
"`.	c #D0D0D0",
" +	c #CA827A",
".+	c #CA524A",
"++	c #C2D5C2",
"@+	c #3E8700",
"#+	c #A1B983",
"$+	c #CBCCCA",
"%+	c #418700",
"&+	c #97B8A1",
"*+	c #0B7DBE",
"=+	c #2D5062",
"-+	c #676766",
";+	c #343434",
">+	c #C1C1C1",
",+	c #CCCCCC",
"'+	c #C7C7C7",
")+	c #C33A29",
"!+	c #DEC9C8",
"~+	c #A0BB83",
"{+	c #3E8500",
"]+	c #C2D4AB",
"^+	c #58950C",
"/+	c #8FB65C",
"(+	c #2888B8",
"_+	c #306178",
":+	c #080808",
"<+	c #C4B68A",
"[+	c #0D0D0D",
"}+	c #787877",
"|+	c #C0C0C0",
"1+	c #333333",
"2+	c #BEBEBE",
"3+	c #C9C9C9",
"4+	c #C4C4C4",
"5+	c #C64737",
"6+	c #C1D6AA",
"7+	c #3A8200",
"8+	c #7DAC45",
"9+	c #649D1F",
"0+	c #55940A",
"a+	c #4B9DC7",
"b+	c #141414",
"c+	c #B9AB7F",
"d+	c #1C1C1C",
"e+	c #BBBABB",
"f+	c #C5C4C5",
"g+	c #CC584A",
"h+	c #E1AEA8",
"i+	c #8BB459",
"j+	c #498C00",
"k+	c #2F7C00",
"l+	c #8CB55A",
"m+	c #006DAD",
"n+	c #323232",
"o+	c #B8B7B8",
"p+	c #C2C1C2",
"q+	c #BDBDBD",
"r+	c #C12B19",
"s+	c #BDBBBB",
"t+	c #313231",
"u+	c #B4B4B4",
"v+	c #BABABA",
"w+	c #CB776D",
"x+	c #C86A5F",
"y+	c #BAB6B6",
"z+	c #B37272",
"A+	c #B23638",
"B+	c #B9B8B8",
"C+	c #666666",
"D+	c #363736",
"E+	c #B0B1B0",
"F+	c #B6B6B6",
"G+	c #BF3524",
"H+	c #B6B3B4",
"I+	c #C08485",
"J+	c #D1393A",
"K+	c #C23335",
"L+	c #9A2C2D",
"M+	c #7B6B3F",
"N+	c #AA9B70",
"O+	c #B2A478",
"P+	c #353535",
"Q+	c #AEAEAE",
"R+	c #B7B7B7",
"S+	c #B3B3B3",
"T+	c #EBC7C2",
"U+	c #C53329",
"V+	c #CE4345",
"W+	c #D23638",
"X+	c #CE3537",
"Y+	c #D13E3D",
"Z+	c #CE4949",
"`+	c #CB5756",
" @	c #C76565",
".@	c #C37474",
"+@	c #BF8483",
"@@	c #BB9292",
"#@	c #B8A09F",
"$@	c #362700",
"%@	c #303030",
"&@	c #333433",
"*@	c #ACACAC",
"=@	c #B5B5B5",
"-@	c #B1B1B1",
";@	c #D9847A",
">@	c #A85954",
",@	c #722526",
"'@	c #962526",
")@	c #CF3436",
"!@	c #4C181A",
"~@	c #532322",
"{@	c #5C3130",
"]@	c #664140",
"^@	c #725252",
"/@	c #7E6564",
"(@	c #8B7877",
"_@	c #978989",
":@	c #A19999",
"<@	c #2E2F2E",
"[@	c #323333",
"}@	c #A8A8A8",
"|@	c #B2B2B2",
"1@	c #C12E1D",
"2@	c #B3B2B2",
"3@	c #ACABAB",
"4@	c #8E6B6C",
"5@	c #6C1617",
"6@	c #881F21",
"7@	c #99292A",
"8@	c #ADABAB",
"9@	c #2D2E2E",
"0@	c #AFAFAF",
"a@	c #DBC1BD",
"b@	c #D38D84",
"c@	c #AAAAAA",
"d@	c #A8A6A6",
"e@	c #785252",
"f@	c #591314",
"g@	c #A7A5A5",
"h@	c #5E5E5E",
"i@	c #A6A7A6",
"j@	c #ADADAD",
"k@	c #ABABAB",
"l@	c #606060",
"m@	c #282929",
"n@	c #797978",
"o@	c #A4A4A4",
"p@	c #A5A5A5",
"q@	c #ACADAC",
"r@	c #A3A4A4",
"s@	c #A4A4A3",
"t@	c #A3A4A3",
"u@	c #282A29",
"v@	c #313332",
"w@	c #313232",
"x@	c #323331",
". + @ # # # # # # # # # # # # # # # # # # # # # # # # # # @ + . ",
"$ % & * = = = = = = = = = = = = = = = = = = = = = = = = * & % - ",
"; > , , , , , , , , , , , , , , , , , , , , , , , , , , , , > ' ",
") ! , ~ ~ ~ ~ ~ ~ ~ ~ ~ ~ ~ ~ ~ ~ ~ ~ ~ ~ ~ ~ ~ ~ ~ ~ ~ ~ , ! { ",
"{ ] , ^ / ( _ : < [ ^ ^ ^ ^ ^ ^ ^ ^ ^ ^ ^ ^ ^ ^ ^ ^ ^ ^ ^ , ] } ",
"{ | 1 2 3 4 5 5 5 6 7 8 5 5 5 5 5 5 5 5 5 5 5 5 5 5 5 5 ! 1 | } ",
"9 0 a = * * * * * * * b c * * * * * * * * * * * * d e f = a 0 9 ",
"g h i & ] ] ] ] ] ] ] ] j k ] ] ] ] ] ] ] ] ] ] l e ] ] & i h g ",
"m n * o p p p p p p p p p q r p p p p p p p p p s p p p o * n m ",
"t u & h v v v v v v v v v v w x v v v v v v v y z v v v h & u t ",
"A B p n C C C C C C C C C C C D E C C C C C C F C C C C n p B A ",
"+ G h H H H H H H H H H H H I J K L M N O P Q R S T S U V h G + ",
"W X n Y Z `  ...........+.@.#.$.%.&.*.=.-.;.>.,.'.).'.,.!.n X W ",
"- ~.{.G G V ].^.G G G /.(._.G G G :.<.[.}.|.1.2.3.4.3.2.1.5.~.- ",
"6.7.G 8.8.9.~.e 0.8.a.b.8.8.8.8.8.8.c.d.e.f.g.h.i.j.k.h.g.l.7.6.",
"m.n.o.p.p.q.r.p.s.t.u.p.p.p.p.p.p.p.v.w.x.y.z.A.B.p.B.A.z.C.n.m.",
"D.E.9.7.7.7.F.7.G.H.7.7.7.7.7.7.7.7.7.I.J.K.g.h.L.M.L.h.g.N.E.D.",
"O.P.q.n.n.n.n.Q.R.S.T.n.n.n.n.n.n.n.n.U.V.W.1.2.3.4.3.2.1.X.P.O.",
"Y.Z.`.E.E.E.E. +.+++@+#+E.E.E.E.E.E.$+%+&+*+=+,.'.).'.,.-+`.Z.Y.",
";+>+,+'+'+'+'+)+!+'+~+{+]+'+'+'+'+'+^+/+'+'+(+_+:+<+[+}+|+,+>+;+",
"1+2+3+4+4+4+4+5+4+4+4+6+7+8+4+4+4+9+0+4+4+4+4+a+b+c+d+4+4+3+2+1+",
"1+e+f+|+|+|+g+h+|+|+|+|+|+i+j+k+].l+|+|+|+|+|+|+b+c+d+m+|+f+e+1+",
"n+o+p+q+q+q+r+q+q+q+s+q+q+q+q+q+q+q+q+q+q+q+q+q+b+c+d+q+q+p+o+n+",
"t+u+2+v+v+w+x+v+y+z+A+B+v+v+v+v+v+v+v+v+v+C+b+b+b+c+d+v+v+2+u+t+",
"D+E+v+F+F+G+H+I+J+K+L+u+F+F+F+F+F+F+F+F+F+b+M+N+O+c+d+F+F+v+E+t+",
"P+Q+R+S+T+U+V+W+W+X+W+W+W+Y+Z+`+ @.@+@@@#@S+b+$@M+c+d+S+S+R+Q+%@",
"&@*@=@-@;@>@,@'@)@K+L+!@!@~@{@]@^@/@(@_@:@-@b+$@M+c+d+-@-@=@*@<@",
"[@}@|@Q+1@2@3@4@5@6@7@8@Q+Q+Q+Q+Q+Q+Q+Q+Q+b+M+N+O+c+d+Q+Q+|@}@9@",
"&@}@0@a@b@c@c@c@d@e@f@g@c@c@c@c@c@c@c@c@c@h@b+b+b+c+d+c@c@0@}@&@",
"&@i@|@j@=@j@j@j@j@j@3@k@j@j@j@j@j@j@j@j@j@j@j@j@l@b+l@j@j@|@i@&@",
"m@n@o@p@q@r@r@s@s@r@t@t@t@t@t@r@t@t@t@t@t@t@r@s@s@r@r@t@p@o@n@m@",
":+u@v@n+t+v@w@x@L.w@t+t+t+t+t+w@t+t+t+t+t+t+w@L.x@w@v@t+n+v@u@:+"};
